HIERARCHY
ROOT Hips
{
	OFFSET 0.000000 0.000000 0.000000
	CHANNELS 6 Xposition Yposition Zposition Zrotation Yrotation Xrotation 
	JOINT LeftUpLeg_virtual
	{
		OFFSET 0.000000 0.000000 0.000000
		CHANNELS 3 Zrotation Yrotation Xrotation
		JOINT LeftUpLeg
		{
			OFFSET 10.205400 -3.823500 0.155100
			CHANNELS 3 Zrotation Yrotation Xrotation
			JOINT LeftLeg
			{
				OFFSET 0.708757 -12.982077 0.567790
				CHANNELS 3 Zrotation Yrotation Xrotation
				JOINT LeftFoot
				{
					OFFSET -0.708756 -10.717838 -2.184338
					CHANNELS 3 Zrotation Yrotation Xrotation
					JOINT LeftToeBase
					{
						OFFSET 0.108149 -7.191104 7.560241
						CHANNELS 3 Zrotation Yrotation Xrotation
						End Site
						{
							OFFSET 0.000000 0.000000 0.000000
						}
					}
				}
			}
		}
	}
	JOINT RightUpLeg_virtual
	{
		OFFSET 0.000000 0.000000 0.000000
		CHANNELS 3 Zrotation Yrotation Xrotation
		JOINT RightUpLeg
		{
			OFFSET -10.205400 -3.823500 0.005500
			CHANNELS 3 Zrotation Yrotation Xrotation
			JOINT RightLeg
			{
				OFFSET -0.708756 -12.982134 0.610632
				CHANNELS 3 Zrotation Yrotation Xrotation
				JOINT RightFoot
				{
					OFFSET 0.708754 -10.717769 -1.945823
					CHANNELS 3 Zrotation Yrotation Xrotation
					JOINT RightToeBase
					{
						OFFSET -0.108140 -7.191069 7.372968
						CHANNELS 3 Zrotation Yrotation Xrotation
						End Site
						{
							OFFSET 0.000000 0.000000 0.000000
						}
					}
				}
			}
		}
	}
	JOINT Spine_virtual
	{
		OFFSET 0.000000 0.000000 0.000000
		CHANNELS 3 Zrotation Yrotation Xrotation
		JOINT Spine
		{
			OFFSET 0.000000 6.876099 0.125700
			CHANNELS 3 Zrotation Yrotation Xrotation
			JOINT Spine1
			{
				OFFSET 0.000000 8.022060 0.146608
				CHANNELS 3 Zrotation Yrotation Xrotation
				JOINT Spine2
				{
					OFFSET 0.000000 9.168068 0.167552
					CHANNELS 3 Zrotation Yrotation Xrotation
					JOINT Neck_virtual
					{
						OFFSET 0.000000 0.000000 0.000000
						CHANNELS 3 Zrotation Yrotation Xrotation
						JOINT Neck
						{
							OFFSET 0.000000 10.314075 0.188496
							CHANNELS 3 Zrotation Yrotation Xrotation
							JOINT Head
							{
								OFFSET 0.000000 7.643700 -2.377400
								CHANNELS 3 Zrotation Yrotation Xrotation
								End Site
								{
									OFFSET 0.000000 0.000000 0.000000
								}
							}
						}
					}
					JOINT LeftShoulder_virtual
					{
						OFFSET 0.000000 0.000000 0.000000
						CHANNELS 3 Zrotation Yrotation Xrotation
						JOINT LeftShoulder
						{
							OFFSET 4.392200 8.824978 0.174984
							CHANNELS 3 Zrotation Yrotation Xrotation
							JOINT LeftArm
							{
								OFFSET 8.771219 -2.981674 -0.026999
								CHANNELS 3 Zrotation Yrotation Xrotation
								JOINT LeftForeArm
								{
									OFFSET 8.512804 0.000000 -0.000000
									CHANNELS 3 Zrotation Yrotation Xrotation
									JOINT LeftHand
									{
										OFFSET 18.484802 0.000000 -0.000000
										CHANNELS 3 Zrotation Yrotation Xrotation
										End Site
										{
											OFFSET 0.000000 0.000000 0.000000
										}
									}
								}
							}
						}
					}
					JOINT RightShoulder_virtual
					{
						OFFSET 0.000000 0.000000 0.000000
						CHANNELS 3 Zrotation Yrotation Xrotation
						JOINT RightShoulder
						{
							OFFSET -4.392200 8.824993 0.141379
							CHANNELS 3 Zrotation Yrotation Xrotation
							JOINT RightArm
							{
								OFFSET -8.771282 -2.981682 -0.094208
								CHANNELS 3 Zrotation Yrotation Xrotation
								JOINT RightForeArm
								{
									OFFSET -8.494598 0.000000 0.000000
									CHANNELS 3 Zrotation Yrotation Xrotation
									JOINT RightHand
									{
										OFFSET -18.483803 0.000000 0.000001
										CHANNELS 3 Zrotation Yrotation Xrotation
										End Site
										{
											OFFSET 0.000000 0.000000 0.000000
										}
									}
								}
							}
						}
					}
				}
			}
		}
	}
}
MOTION
Frames: 8
Frame Time: 0.033333
5.487181 36.470066 -0.382615 -179.962671 5.510866 -179.856148 -2.099292 -3.274556 10.407463 -5.451048 0.848640 -15.767321 5.449806 5.694880 14.516988 -9.930698 -0.394923 10.458839 0.000000 0.000000 0.000000 3.676953 -1.574533 9.205649 0.890395 -4.102503 -3.065442 -9.228283 0.489092 11.327597 11.322588 9.576019 9.388069 0.000000 0.000000 0.000000 2.008011 0.376963 -1.403826 -5.537609 1.166920 -7.868926 1.648800 -4.001974 4.705513 0.009544 -0.011094 0.020414 1.354124 -2.248338 6.008943 -1.414353 3.862057 6.315649 0.000000 0.000000 0.000000 2.671064 -1.398581 3.127753 0.444791 -2.305821 -5.301715 -19.126094 29.781004 -27.975050 -4.923272 -30.694272 -3.985252 0.000000 0.000000 0.000000 -0.599011 -0.651288 2.791580 10.338768 -2.841715 -6.658269 18.695025 -29.129961 -33.444445 -0.818568 35.885660 -3.325890 0.000000 0.000000 0.000000 
5.481557 36.457890 -0.343611 179.933452 5.447773 -179.732822 -2.160112 -3.429098 10.413942 -5.611006 1.070858 -15.818696 5.470792 5.699341 14.615381 -9.786061 -0.148193 10.401153 0.000000 0.000000 0.000000 3.809544 -1.555493 9.341964 0.461767 -3.533332 -2.940603 -9.505619 1.059886 11.392078 11.700085 10.001889 9.800954 0.000000 0.000000 0.000000 1.934336 0.392090 -1.441917 -5.602651 1.174346 -7.914428 1.605135 -3.979704 4.663587 -0.010814 -0.001368 0.001447 1.402947 -2.401603 5.962902 -1.377823 3.879672 6.314049 0.000000 0.000000 0.000000 2.721554 -1.415376 3.100432 0.474292 -2.361047 -5.341062 -19.135830 29.869787 -27.861663 -4.907975 -30.658335 -3.983931 0.000000 0.000000 0.000000 -0.586321 -0.706559 2.787382 10.374750 -2.892332 -6.613343 18.751429 -29.161298 -33.581294 -0.780697 35.937727 -3.278877 0.000000 0.000000 0.000000 
5.477077 36.458561 -0.296028 179.924408 5.417012 -179.721525 -2.209003 -3.394301 10.374496 -5.646161 1.188215 -15.878812 5.585578 5.573533 14.643555 -9.927280 -0.184460 10.410194 0.000000 0.000000 0.000000 3.787738 -1.550929 9.316203 0.447853 -3.676807 -2.992309 -9.465307 0.948213 11.353631 11.862098 10.027816 9.779847 0.000000 0.000000 0.000000 1.890888 0.388255 -1.365179 -5.610359 1.156957 -7.945052 1.632572 -3.970967 4.614116 0.048010 -0.010340 -0.035028 1.375536 -2.220932 6.007520 -1.351632 3.844520 6.355948 0.000000 0.000000 0.000000 2.682754 -1.384966 3.164761 0.531431 -2.456431 -5.309967 -19.098401 29.906957 -27.910195 -4.861819 -30.676265 -3.933065 0.000000 0.000000 0.000000 -0.630038 -0.692202 2.846749 10.391709 -2.880695 -6.630442 18.922725 -29.256941 -33.838400 -0.692923 36.034692 -3.211349 0.000000 0.000000 0.000000 
5.470720 36.464588 -0.254605 179.993571 5.509539 -179.749829 -2.167476 -3.298695 10.315334 -5.621886 1.124957 -15.883595 5.687723 5.738027 14.701916 -9.905904 -0.276197 10.426555 0.000000 0.000000 0.000000 3.832743 -1.498666 9.285378 0.428072 -3.798040 -3.032221 -9.458170 0.878568 11.316929 12.059817 10.040757 9.822459 0.000000 0.000000 0.000000 1.866902 0.421957 -1.276756 -5.554225 1.171889 -7.920957 1.639682 -3.943823 4.575998 -0.011826 -0.008795 0.016965 1.402321 -2.315940 5.907113 -1.285425 3.798657 6.419059 0.000000 0.000000 0.000000 2.740838 -1.291023 3.065776 0.640083 -2.576834 -5.404494 -19.047436 29.949468 -27.983598 -4.882344 -30.762967 -3.728655 0.000000 0.000000 0.000000 -0.567378 -0.610520 2.759902 10.485923 -2.809127 -6.596417 19.059868 -29.450519 -33.881826 -0.737772 36.076400 -3.249197 0.000000 0.000000 0.000000 
5.467901 36.472706 -0.212166 179.993216 5.532012 -179.777491 -2.212246 -3.287342 10.246160 -5.529921 0.822763 -15.853907 5.608989 5.820654 14.717697 -9.804939 -0.226495 10.426814 0.000000 0.000000 0.000000 3.803611 -1.528588 9.266869 0.445924 -3.801722 -3.047582 -9.463922 0.900101 11.268153 12.136327 9.988634 9.930973 0.000000 0.000000 0.000000 1.782676 0.427788 -1.191089 -5.495412 1.187189 -7.868031 1.660625 -3.915091 4.562111 0.025320 -0.012467 0.012815 1.391397 -2.194151 5.867948 -1.217449 3.698713 6.525844 0.000000 0.000000 0.000000 2.692188 -1.285610 3.057528 0.666106 -2.773739 -5.200574 -19.151941 30.036344 -28.083279 -4.794887 -30.798983 -3.632856 0.000000 0.000000 0.000000 -0.605427 -0.608757 2.731077 10.580629 -2.777117 -6.660643 19.217712 -29.678695 -34.352553 -0.451780 36.124809 -2.967742 0.000000 0.000000 0.000000 
5.464818 36.478558 -0.167309 179.931307 5.649374 -179.777792 -2.303971 -3.246689 10.195315 -5.496976 0.877771 -15.868633 5.595936 5.678678 14.680976 -9.749734 -0.063125 10.441540 0.000000 0.000000 0.000000 3.718136 -1.454955 9.217478 0.526115 -3.736053 -3.100949 -9.457898 0.997368 11.186902 11.929340 10.008604 10.027997 0.000000 0.000000 0.000000 1.691524 0.425090 -1.142938 -5.418900 1.249829 -7.786089 1.642109 -3.839044 4.544580 -0.009559 0.011955 0.004139 1.414532 -2.218120 5.827299 -1.156141 3.549968 6.648307 0.000000 0.000000 0.000000 2.729687 -1.256485 3.004962 0.644395 -2.961891 -5.093797 -19.241579 30.184908 -28.043590 -4.676969 -30.893741 -3.563477 0.000000 0.000000 0.000000 -0.567709 -0.541705 2.683212 10.664751 -2.683769 -6.554104 19.488509 -29.878092 -34.632812 -0.466342 36.179130 -2.920561 0.000000 0.000000 0.000000 
5.466832 36.484787 -0.121597 -179.996672 5.697133 -179.803419 -2.282446 -3.321413 10.136887 -5.407208 0.738847 -15.889950 5.664411 5.871759 14.797542 -9.734978 -0.097208 10.329621 0.000000 0.000000 0.000000 3.775532 -1.521816 9.190300 0.558769 -3.707916 -3.165081 -9.511853 1.067109 11.127894 12.116837 9.900847 10.139210 0.000000 0.000000 0.000000 1.650992 0.390033 -1.081417 -5.284031 1.296844 -7.685296 1.641733 -3.810166 4.554954 0.018018 -0.007358 0.007418 1.362056 -2.078432 5.814239 -1.125905 3.349173 6.814251 0.000000 0.000000 0.000000 2.660621 -1.169300 2.991873 0.570405 -3.062611 -5.033849 -19.480198 30.289847 -28.203866 -4.567396 -31.061057 -3.321179 0.000000 0.000000 0.000000 -0.647753 -0.497661 2.648595 10.719507 -2.546335 -6.603167 19.691907 -30.035607 -34.933129 -0.466386 36.225892 -2.878884 0.000000 0.000000 0.000000 
5.463248 36.488136 -0.076895 -179.988271 5.831178 -179.759336 -2.293080 -3.314232 10.114008 -5.396448 0.595368 -15.927964 5.697018 5.887642 14.776247 -9.675904 -0.006636 10.429164 0.000000 0.000000 0.000000 3.756423 -1.494525 9.146224 0.596061 -3.653127 -3.292003 -9.513965 1.197549 11.060032 12.111164 9.828929 10.217023 0.000000 0.000000 0.000000 1.600559 0.360833 -1.138024 -5.130829 1.356439 -7.543080 1.610651 -3.777721 4.595927 0.020675 -0.012376 0.013250 1.319494 -2.006047 5.838789 -1.115282 3.128250 7.065349 0.000000 0.000000 0.000000 2.606116 -1.065921 2.992094 0.479889 -3.110551 -5.096078 -19.622380 30.406482 -28.435985 -4.599603 -31.239345 -3.180329 0.000000 0.000000 0.000000 -0.705377 -0.422843 2.698222 10.804788 -2.353413 -6.552276 19.844818 -30.125038 -35.179828 -0.542105 36.194655 -2.835150 0.000000 0.000000 0.000000 
